<svg xmlns="http://www.w3.org/2000/svg" width="1254" height="836" viewBox="0 0 1254 836">
<g>
<path d="M 265.63 469.09 C251.07,473.25 228.81,472.37 214.94,467.11 C193.54,458.98 176.45,439.87 172.11,419.20 C170.53,411.65 170.74,395.46 172.51,388.46 C179.41,361.22 203.99,339.85 234.55,334.52 C249.70,331.88 270.16,333.17 284.40,337.67 C296.60,341.52 314.58,351.52 325.00,360.25 L 328.50 363.18 L 316.65 375.03 L 304.80 386.87 L 300.11 383.58 C275.07,365.98 249.90,361.68 230.03,371.62 C222.34,375.47 217.35,380.44 213.36,388.21 C211.05,392.72 210.64,394.76 210.61,402.00 C210.58,409.29 210.95,411.23 213.22,415.59 C214.68,418.39 218.40,422.99 221.49,425.82 C232.70,436.07 249.08,437.77 265.74,430.43 L 270.97 428.12 L 271.81 431.31 C272.69,434.65 273.36,434.83 280.25,433.65 C283.72,433.05 303.55,422.59 315.85,414.87 C321.00,411.64 325.61,409.00 326.10,409.00 C326.60,409.00 327.00,408.51 327.00,407.92 C327.00,406.23 328.39,407.12 334.00,412.38 L 339.19 417.26 L 330.85 425.74 C308.40,448.54 286.39,463.17 265.63,469.09 ZM 572.50 373.31 L 571.97 422.00 L 557.00 422.00 L 557.00 383.61 C557.00,381.05 557.00,378.66 557.00,376.43 C556.98,351.32 556.98,345.55 559.35,344.30 C560.06,343.93 560.99,343.96 562.18,344.00 C562.54,344.01 562.92,344.02 563.33,344.03 C566.03,344.05 567.46,345.18 573.00,351.67 C576.58,355.86 584.22,364.74 590.00,371.41 C595.78,378.09 601.71,385.00 603.19,386.77 C604.66,388.55 606.12,390.00 606.44,390.00 C606.75,390.00 607.00,379.88 607.00,367.50 L 607.00 345.00 L 622.00 345.00 L 622.00 422.00 L 618.63 422.00 C615.62,422.00 614.24,420.87 605.54,411.25 C600.20,405.34 590.58,394.38 584.16,386.90 ZM 648.00 391.05 L 648.00 422.00 L 633.00 422.00 L 633.00 344.97 L 660.75 345.23 L 688.50 345.50 L 688.80 352.25 L 689.09 359.00 L 647.92 359.00 L 648.50 376.50 L 666.19 376.77 L 683.88 377.05 L 684.53 381.37 C684.89,383.74 685.03,386.77 684.84,388.09 L 684.50 390.50 ZM 746.85 393.00 C742.46,396.30 738.57,398.97 738.19,398.93 C735.24,398.64 721.80,384.06 695.08,352.17 L 688.66 344.50 L 699.52 344.21 C708.10,343.99 710.55,344.23 711.18,345.35 C712.37,347.48 739.93,381.84 740.95,382.47 C741.98,383.11 771.00,347.47 771.00,345.57 C771.00,345.26 769.20,345.00 767.00,345.00 C764.80,345.00 763.00,344.55 763.00,344.00 C763.00,343.38 768.50,343.00 777.50,343.00 C789.57,343.00 792.00,343.25 792.00,344.47 C792.00,348.36 758.97,383.86 746.85,393.00 ZM 545.00 345.00 L 545.00 422.00 L 530.00 422.00 L 530.00 345.00 ZM 182.67 427.44 C183.60,429.38 184.47,430.86 184.60,430.73 C184.74,430.59 184.22,427.79 183.44,424.49 C181.75,417.29 181.60,406.05 183.10,398.80 C183.70,395.88 185.79,390.12 187.73,386.00 C194.69,371.26 210.07,359.67 229.05,354.87 C236.36,353.02 239.20,352.84 252.92,353.34 C261.49,353.66 270.08,354.22 272.00,354.58 C277.93,355.72 274.88,354.24 266.98,352.16 C262.87,351.07 255.45,349.71 250.50,349.13 C226.41,346.31 224.71,346.50 210.26,353.62 C193.32,361.98 182.51,376.87 179.22,396.42 C177.85,404.55 177.86,406.24 179.35,414.64 C180.25,419.74 181.75,425.50 182.67,427.44 ZM 702.32 458.84 C698.62,460.81 695.05,460.20 691.92,457.08 C687.07,452.22 688.47,445.70 694.96,443.02 C700.63,440.67 707.03,445.18 706.97,451.47 C706.93,454.89 705.52,457.13 702.32,458.84 ZM 788.55 457.55 C783.61,462.48 774.76,459.46 773.40,452.38 C772.51,447.74 777.13,442.80 782.36,442.80 C790.31,442.80 794.14,451.95 788.55,457.55 ZM 1069.92 457.41 C1067.63,459.34 1065.72,460.00 1062.42,460.00 L 1058.00 460.00 L 1058.00 443.00 L 1063.05 443.00 C1067.07,443.00 1068.59,443.50 1070.55,445.45 C1074.16,449.07 1073.90,454.07 1069.92,457.41 ZM 543.91 336.94 C536.63,339.71 534.39,339.54 530.82,335.97 C528.37,333.53 527.93,332.43 528.48,330.23 C529.42,326.49 530.64,325.24 534.11,324.48 C536.64,323.92 537.73,324.42 541.45,327.85 C543.88,330.09 547.63,332.36 549.91,332.98 C552.16,333.58 554.00,334.52 554.00,335.07 C554.00,336.62 550.88,337.43 550.06,336.09 C549.50,335.19 547.97,335.40 543.91,336.94 ZM 863.00 457.00 C863.00,459.87 862.10,460.77 860.67,459.33 C860.30,458.97 860.00,455.14 860.00,450.83 L 860.00 443.00 L 865.35 443.00 C873.04,443.00 876.02,446.68 872.44,451.78 C871.03,453.79 871.03,454.21 872.44,456.22 C875.72,460.90 872.59,461.64 869.16,457.00 C867.94,455.35 866.05,454.00 864.97,454.00 C863.45,454.00 863.00,454.68 863.00,457.00 ZM 845.81 456.74 C845.64,458.17 844.94,459.53 844.25,459.76 C843.32,460.06 843.00,458.00 843.00,451.58 L 843.00 443.00 L 847.85 443.00 C853.37,443.00 856.00,445.03 856.00,449.29 C856.00,452.32 853.07,454.33 848.85,454.21 C846.63,454.15 846.06,454.62 845.81,456.74 ZM 617.36 458.88 C612.01,461.32 606.52,459.48 604.46,454.56 C601.92,448.47 606.11,442.55 612.95,442.55 C617.46,442.55 620.57,444.61 618.96,446.55 C618.10,447.59 617.43,447.58 615.38,446.52 C612.15,444.85 609.11,445.67 607.79,448.57 C605.46,453.68 609.07,457.95 614.57,456.57 C617.51,455.83 617.77,453.44 615.00,452.71 C611.78,451.87 612.70,450.00 616.33,450.00 C620.52,450.00 620.69,450.19 620.21,454.35 C619.92,456.78 619.10,458.09 617.36,458.88 ZM 995.00 453.92 C994.72,456.98 993.96,459.52 993.25,459.76 C992.32,460.06 992.00,458.00 992.00,451.58 C992.00,441.64 993.02,440.77 997.77,446.69 L 1000.73 450.38 L 1003.11 446.70 C1004.43,444.68 1006.31,443.02 1007.29,443.01 C1008.89,443.00 1009.05,443.87 1008.79,451.17 C1008.60,456.60 1008.08,459.48 1007.25,459.75 C1006.35,460.05 1005.99,458.55 1005.97,454.33 L 1005.95 448.50 L 1002.99 452.00 L 1002.90 452.10 C1001.49,453.77 1000.74,454.66 1000.02,454.63 C999.19,454.59 998.42,453.29 996.72,450.50 C995.64,448.74 995.44,449.14 995.00,453.92 ZM 533.00 454.50 C533.00,459.60 532.33,460.99 530.67,459.33 C530.30,458.97 530.00,455.14 530.00,450.83 C530.00,443.97 530.22,443.00 531.79,443.00 C532.78,443.00 535.37,445.33 537.54,448.20 L 541.50 453.40 L 541.80 448.20 C542.02,444.47 542.51,443.00 543.55,443.00 C544.70,443.00 545.00,444.75 545.00,451.50 C545.00,456.17 544.59,460.00 544.08,460.00 C542.99,460.00 535.00,451.08 535.00,449.86 C535.00,449.39 534.55,449.00 534.00,449.00 C533.45,449.00 533.00,451.48 533.00,454.50 ZM 646.00 454.50 C646.00,458.72 645.65,460.00 644.50,460.00 C643.28,460.00 643.00,458.39 643.00,451.50 C643.00,444.06 643.22,443.01 644.75,443.04 C645.71,443.07 648.30,445.42 650.50,448.28 L 654.50 453.47 L 654.80 448.24 C655.02,444.47 655.51,443.00 656.55,443.00 C657.70,443.00 658.00,444.76 658.00,451.58 C658.00,461.61 657.46,461.83 651.50,454.25 C649.30,451.44 647.16,449.12 646.75,449.07 C646.34,449.03 646.00,451.48 646.00,454.50 ZM 799.00 454.50 C799.00,458.72 798.65,460.00 797.50,460.00 C796.28,460.00 796.00,458.39 796.00,451.50 C796.00,441.24 797.06,440.68 802.68,447.96 C804.78,450.68 806.84,452.93 807.25,452.96 C807.66,452.98 808.00,450.75 808.00,448.00 C808.00,444.22 808.37,443.00 809.50,443.00 C810.72,443.00 811.00,444.61 811.00,451.50 C811.00,457.64 810.65,460.00 809.75,460.00 C808.45,459.99 801.00,451.37 801.00,449.86 C801.00,449.39 800.55,449.00 800.00,449.00 C799.45,449.00 799.00,451.48 799.00,454.50 ZM 907.50 458.00 C906.88,459.95 904.00,460.87 904.00,459.12 C904.00,456.78 911.13,443.00 912.34,443.00 C913.45,443.00 917.64,450.86 920.72,458.75 C921.54,460.83 918.15,460.15 917.00,458.00 C916.21,456.53 914.91,456.00 912.03,456.00 C909.01,456.00 907.99,456.45 907.50,458.00 ZM 638.00 458.50 C638.00,459.66 636.69,460.00 632.17,460.00 C628.96,460.00 626.03,459.70 625.67,459.33 C624.83,458.50 624.82,451.72 625.64,446.75 L 626.26 443.00 L 632.13 443.00 C635.38,443.00 638.00,443.45 638.00,444.00 C638.00,444.55 636.99,445.01 635.75,445.01 C631.52,445.04 629.00,446.20 629.00,448.12 C629.00,449.65 629.75,450.00 633.00,450.00 C635.89,450.00 637.00,450.42 637.00,451.50 C637.00,452.58 635.89,453.00 633.00,453.00 C629.67,453.00 629.00,453.33 629.00,455.00 C629.00,456.70 629.67,457.00 633.50,457.00 C636.83,457.00 638.00,457.39 638.00,458.50 ZM 564.00 458.50 C564.00,459.68 562.61,460.00 557.50,460.00 L 551.00 460.00 L 551.00 443.00 L 556.94 443.00 C564.14,443.00 566.01,444.76 559.27,445.19 C555.20,445.46 554.45,445.83 554.18,447.75 C553.89,449.77 554.28,450.00 557.93,450.00 C560.88,450.00 562.00,450.41 562.00,451.50 C562.00,452.58 560.89,453.00 558.00,453.00 C554.67,453.00 554.00,453.33 554.00,455.00 C554.00,456.73 554.67,457.00 559.00,457.00 C562.78,457.00 564.00,457.37 564.00,458.50 ZM 952.75 458.25 C952.50,459.02 949.99,459.61 946.17,459.80 L 940.00 460.10 L 940.00 443.00 L 946.58 443.00 C951.40,443.00 953.06,443.33 952.76,444.25 C952.53,444.95 950.28,445.63 947.67,445.80 C943.87,446.05 943.00,446.46 943.00,448.00 C943.00,449.50 943.86,449.95 947.25,450.19 C949.59,450.36 951.50,450.95 951.50,451.50 C951.50,452.05 949.59,452.64 947.25,452.81 C943.81,453.06 943.00,453.49 943.00,455.06 C943.00,456.73 943.72,457.00 948.08,457.00 C951.70,457.00 953.05,457.36 952.75,458.25 ZM 1052.75 458.25 C1052.31,459.61 1041.91,460.58 1040.71,459.38 C1040.32,458.99 1040.00,455.12 1040.00,450.79 L 1040.00 442.90 L 1046.25 443.20 C1053.46,443.55 1054.29,445.35 1047.45,445.81 C1043.78,446.05 1042.94,446.45 1043.20,447.81 C1043.42,448.97 1044.70,449.60 1047.26,449.81 C1052.62,450.25 1052.39,453.00 1047.00,453.00 C1043.67,453.00 1043.00,453.33 1043.00,455.00 C1043.00,456.74 1043.67,457.00 1048.08,457.00 C1051.70,457.00 1053.05,457.36 1052.75,458.25 ZM 683.43 458.43 C681.50,460.36 676.04,460.48 673.54,458.65 C670.75,456.61 672.37,454.94 675.86,456.25 C679.03,457.45 682.38,456.64 681.77,454.81 C681.55,454.16 679.51,453.00 677.23,452.24 C674.87,451.46 672.83,450.05 672.49,448.97 C670.92,444.01 677.78,440.32 682.65,443.50 C685.87,445.61 684.38,447.88 681.11,445.84 C679.60,444.90 678.52,444.81 677.36,445.54 C674.90,447.10 675.49,448.39 679.18,449.50 C681.00,450.05 683.06,450.86 683.75,451.31 C685.50,452.44 685.31,456.55 683.43,458.43 ZM 826.78 458.44 C824.04,460.36 820.00,460.45 817.54,458.65 C814.75,456.61 816.37,454.94 819.86,456.25 C822.99,457.44 826.38,456.64 825.79,454.87 C825.58,454.24 823.41,453.00 820.96,452.09 C816.13,450.31 814.92,447.86 817.27,444.64 C819.61,441.44 829.58,442.63 827.58,445.88 C827.13,446.60 826.16,446.57 824.43,445.78 C822.39,444.86 821.62,444.95 820.29,446.29 C818.76,447.81 818.79,447.98 820.57,448.61 C827.96,451.23 829.00,451.95 829.00,454.39 C829.00,455.84 828.06,457.54 826.78,458.44 ZM 573.09 456.87 C570.69,459.79 568.00,461.03 568.00,459.23 C568.00,458.80 569.38,456.78 571.07,454.73 L 574.15 451.00 L 571.05 447.25 C568.48,444.14 568.23,443.44 569.61,443.15 C570.52,442.96 572.25,444.03 573.45,445.54 L 575.63 448.28 L 577.71 445.64 C578.85,444.19 580.51,443.00 581.39,443.00 C583.58,443.00 583.42,443.71 580.50,447.18 C579.12,448.82 578.00,450.48 578.00,450.88 C578.00,451.28 579.12,453.14 580.50,455.00 C583.36,458.87 583.60,460.00 581.57,460.00 C580.78,460.00 579.13,458.59 577.90,456.86 L 575.67 453.73 ZM 741.00 458.00 C738.22,460.78 733.48,460.58 730.45,457.55 C728.39,455.48 728.00,454.13 728.00,449.05 C728.00,444.34 728.33,443.00 729.50,443.00 C730.65,443.00 731.00,444.27 731.00,448.43 C731.00,454.14 732.62,457.00 735.87,457.00 C738.88,457.00 740.00,454.77 740.00,448.80 C740.00,444.31 740.34,443.00 741.50,443.00 C744.00,443.00 743.59,455.41 741.00,458.00 ZM 693.44 454.55 C695.65,457.92 700.37,457.90 702.59,454.51 C704.68,451.32 703.81,447.77 700.51,446.00 C698.24,444.79 697.65,444.87 695.23,446.68 C691.85,449.19 691.36,451.37 693.44,454.55 ZM 778.20 455.80 C779.92,457.52 784.03,457.28 786.17,455.35 C791.23,450.76 785.07,442.76 779.37,446.50 C776.74,448.21 776.06,453.66 778.20,455.80 ZM 899.33 451.84 C897.31,456.33 895.16,460.00 894.55,460.00 C893.94,460.00 891.81,456.17 889.81,451.50 C886.62,444.02 886.40,443.00 887.98,443.00 C889.21,443.00 890.46,444.71 892.00,448.50 C893.23,451.52 894.52,454.00 894.88,454.00 C895.24,454.00 896.34,451.73 897.33,448.95 C898.92,444.45 901.24,441.91 902.55,443.21 C902.80,443.46 901.35,447.34 899.33,451.84 ZM 1061.00 451.50 C1061.00,456.70 1061.14,457.00 1063.50,457.00 C1066.47,457.00 1070.00,453.78 1070.00,451.07 C1070.00,448.26 1067.29,446.00 1063.93,446.00 C1061.05,446.00 1061.00,446.09 1061.00,451.50 ZM 595.00 453.07 C595.00,458.56 594.69,460.00 593.50,460.00 C592.31,460.00 592.00,458.56 592.00,453.00 L 592.00 446.00 L 589.00 446.00 C586.00,443.30 587.51,443.00 593.58,443.00 C599.20,443.00 601.06,443.32 600.76,444.25 C600.53,444.94 599.14,445.64 597.67,445.82 C595.06,446.13 595.00,446.30 595.00,453.07 ZM 930.00 453.00 C930.00,458.56 929.69,460.00 928.50,460.00 C927.31,460.00 927.00,458.56 927.00,453.00 C927.00,446.20 926.93,446.00 924.50,446.00 C922.94,446.00 922.00,445.43 922.00,444.50 C922.00,443.31 923.44,443.00 929.00,443.00 C934.56,443.00 936.00,443.31 936.00,444.50 L 930.00 446.00 ZM 1030.79 452.73 C1030.61,456.91 1030.04,459.49 1029.25,459.75 C1027.74,460.25 1027.72,460.11 1027.98,452.25 L 1028.18 446.00 L 1025.09 446.00 C1023.01,446.00 1022.00,445.51 1022.00,444.50 C1022.00,443.31 1023.45,443.00 1029.08,443.00 C1034.30,443.00 1036.06,443.33 1035.76,444.25 C1035.53,444.94 1034.39,445.64 1033.22,445.81 C1031.33,446.09 1031.06,446.87 1030.79,452.73 ZM 755.79 452.73 C755.61,456.91 755.04,459.49 754.25,459.75 C753.33,460.06 753.00,458.30 753.00,453.08 L 753.00 446.00 L 750.00 446.00 C747.00,443.31 748.45,443.00 754.08,443.00 C759.30,443.00 761.06,443.33 760.76,444.25 C760.53,444.94 759.39,445.64 758.22,445.81 C756.33,446.09 756.06,446.87 755.79,452.73 ZM 724.00 458.50 C724.00,459.67 722.67,460.00 718.00,460.00 L 712.00 460.00 L 712.00 451.50 C712.00,444.61 712.28,443.00 713.50,443.00 C714.69,443.00 715.00,444.44 715.00,450.00 L 715.00 457.00 L 719.50 457.00 C722.83,457.00 724.00,457.39 724.00,458.50 ZM 978.26 458.50 C978.13,459.05 975.54,459.63 972.51,459.80 L 967.00 460.10 L 967.00 451.55 C967.00,444.62 967.28,443.00 968.50,443.00 C969.69,443.00 970.00,444.44 970.00,449.94 L 970.00 456.89 L 974.25 457.19 C976.59,457.36 978.39,457.95 978.26,458.50 ZM 882.00 451.50 C882.00,458.39 881.72,460.00 880.50,460.00 C879.28,460.00 879.00,458.39 879.00,451.50 C879.00,444.61 879.28,443.00 880.50,443.00 C881.72,443.00 882.00,444.61 882.00,451.50 ZM 986.00 451.50 C986.00,458.39 985.72,460.00 984.50,460.00 C983.28,460.00 983.00,458.39 983.00,451.50 C983.00,444.61 983.28,443.00 984.50,443.00 C985.72,443.00 986.00,444.61 986.00,451.50 ZM 768.79 451.17 C768.60,456.60 768.08,459.48 767.25,459.75 C766.31,460.06 766.00,458.00 766.00,451.58 C766.00,444.52 766.27,443.00 767.54,443.00 C768.83,443.00 769.03,444.35 768.79,451.17 ZM 1017.79 451.17 C1017.60,456.60 1017.08,459.48 1016.25,459.75 C1015.31,460.06 1015.00,458.00 1015.00,451.58 C1015.00,444.52 1015.27,443.00 1016.54,443.00 C1017.83,443.00 1018.03,444.35 1017.79,451.17 ZM 846.00 449.00 C846.00,451.49 846.40,452.00 848.38,452.00 C849.69,452.00 851.31,451.33 851.99,450.51 C853.90,448.21 852.45,446.00 849.03,446.00 C846.33,446.00 846.00,446.33 846.00,449.00 ZM 863.00 448.50 C863.00,450.68 863.44,451.00 866.39,451.00 C868.57,451.00 870.00,450.43 870.40,449.41 C871.33,446.97 870.21,446.00 866.44,446.00 C863.44,446.00 863.00,446.32 863.00,448.50 ZM 910.39 451.42 C909.94,452.61 910.42,453.00 912.37,453.00 C914.77,453.00 914.87,452.82 913.82,450.50 C912.70,448.05 911.00,447.10 911.00,448.92 C911.00,449.42 910.73,450.55 910.39,451.42 Z" fill="rgb(10,106,180)"/>
<path d="M 430.98 469.02 C414.72,473.72 391.89,472.33 374.22,465.58 C361.88,460.87 345.21,450.04 336.66,441.20 L 332.82 437.23 L 335.54 433.12 C338.35,428.88 340.00,427.90 340.00,430.46 C340.00,431.29 344.17,434.18 349.55,437.08 C354.81,439.91 359.80,443.29 360.65,444.59 C364.37,450.27 383.77,460.08 396.31,462.62 C409.05,465.20 419.79,464.20 430.18,459.47 C435.72,456.94 439.74,454.31 442.22,451.59 C444.27,449.34 445.95,447.17 445.97,446.76 C445.99,446.35 447.56,443.98 449.46,441.49 C451.36,438.99 453.34,435.44 453.85,433.58 C455.57,427.36 452.57,418.00 448.86,418.00 C448.45,418.00 445.59,421.51 442.52,425.81 C436.78,433.82 433.20,436.71 427.43,438.02 C421.67,439.31 422.37,436.52 429.45,429.90 C437.88,422.01 441.00,415.83 441.00,407.00 C441.00,387.15 420.20,373.23 395.82,376.78 C391.32,377.44 387.47,377.81 387.26,377.60 C387.05,377.39 389.27,375.86 392.19,374.20 C410.36,363.89 431.50,366.27 453.63,381.11 C461.59,386.46 466.89,392.93 470.44,401.67 C473.21,408.46 474.65,409.36 475.50,404.81 C476.74,398.22 472.45,380.03 467.67,371.55 C465.83,368.29 465.46,366.38 465.79,361.75 L 466.19 356.00 L 478.15 356.00 L 477.95 368.25 C477.81,376.76 478.24,382.49 479.36,387.00 C482.89,401.23 480.72,419.55 473.80,434.00 C470.47,440.95 468.15,444.06 461.11,451.05 C451.50,460.59 443.35,465.45 430.98,469.02 ZM 880.92 405.14 L 881.00 420.79 L 876.75 421.23 C872.50,421.68 872.49,421.67 861.13,410.51 C854.88,404.36 850.38,399.33 851.13,399.32 C854.03,399.29 862.96,394.75 862.31,393.63 C861.95,393.01 862.56,393.29 863.66,394.25 C866.39,396.64 867.00,396.46 867.02,393.25 C867.02,391.57 867.33,390.97 867.80,391.72 C868.66,393.06 877.98,393.04 877.99,391.69 C878.00,391.25 878.41,391.14 878.91,391.45 C879.42,391.76 880.06,391.45 880.34,390.76 C880.61,390.07 880.88,396.54 880.92,405.14 ZM 908.53 420.95 C908.17,421.53 904.55,422.00 900.44,422.00 L 893.00 422.00 L 893.10 410.75 C893.18,401.12 894.44,386.13 894.86,389.68 C895.04,391.16 899.79,389.91 904.47,387.15 L 907.74 385.22 L 908.46 402.56 C908.86,412.10 908.89,420.37 908.53,420.95 ZM 1027.36 421.36 C1026.56,421.47 1025.83,421.58 1025.16,421.69 C1022.27,422.12 1020.56,422.38 1019.53,421.66 C1018.01,420.60 1017.97,417.44 1017.86,409.64 C1017.84,408.41 1017.82,407.06 1017.80,405.58 C1017.52,390.45 1017.64,389.17 1019.25,389.29 C1020.21,389.37 1021.00,389.78 1021.00,390.22 C1021.00,390.66 1023.47,390.78 1026.50,390.48 L 1032.00 389.95 L 1032.00 420.73 ZM 955.85 404.25 L 956.00 421.00 L 942.00 421.00 L 942.00 406.35 C942.00,392.48 942.09,391.77 943.75,393.19 C947.23,396.17 954.67,394.24 955.29,390.20 C955.51,388.72 955.77,395.04 955.85,404.25 ZM 822.00 400.50 L 822.00 421.00 L 808.00 421.00 L 808.07 407.75 C808.11,399.42 808.46,395.24 809.00,396.50 C809.47,397.60 809.89,398.08 809.93,397.56 C809.97,397.04 810.56,397.37 811.25,398.30 C812.05,399.37 814.20,400.07 817.25,400.24 ZM 478.38 349.88 L 477.75 353.00 L 462.00 353.00 L 462.00 338.00 L 479.00 338.00 L 479.00 342.38 C479.00,344.78 478.72,348.16 478.38,349.88 ZM 476.00 324.07 L 476.00 334.00 L 469.00 334.00 C462.40,334.00 462.00,333.87 462.02,331.75 C462.04,328.65 463.16,327.23 465.34,327.57 C466.36,327.72 469.17,327.00 471.59,325.96 ZM 477.00 298.50 C477.00,304.97 476.99,305.00 474.17,305.00 C470.39,305.00 469.98,304.40 471.17,300.66 C473.31,293.91 474.29,292.00 475.62,292.00 C476.65,292.00 477.00,293.64 477.00,298.50 ZM 458.00 329.67 C458.00,332.69 457.73,333.00 455.06,333.00 C453.44,333.00 451.89,332.63 451.61,332.17 C450.99,331.17 451.98,327.03 452.87,326.92 C457.95,326.25 458.00,326.27 458.00,329.67 ZM 713.50 425.00 C711.52,427.18 707.57,427.56 704.63,425.85 C701.88,424.26 704.37,423.03 710.40,423.02 C715.25,423.00 715.29,423.03 713.50,425.00 ZM 463.80 314.80 C461.52,317.08 459.00,316.05 459.00,312.83 C459.00,311.46 459.76,311.00 462.00,311.00 C465.15,311.00 465.93,312.67 463.80,314.80 Z" fill="rgb(188,47,12)"/>
<path d="M 335.44 421.08 L 339.19 417.26 L 334.00 412.38 C328.39,407.12 327.00,406.23 327.00,407.92 C327.00,408.51 326.60,409.00 326.10,409.00 C325.61,409.00 321.00,411.64 315.85,414.87 C303.55,422.59 283.72,433.05 280.25,433.65 C273.36,434.83 272.69,434.65 271.81,431.31 L 270.97 428.12 L 265.74 430.43 C260.86,432.58 256.01,433.95 251.31,434.56 C256.28,433.90 261.40,432.37 266.52,429.95 C277.18,424.93 288.96,415.14 314.00,390.50 C346.27,358.74 353.45,352.82 369.50,344.75 C384.55,337.18 398.13,334.00 415.44,334.00 L 425.00 334.00 L 425.00 320.00 L 440.69 320.00 L 441.31 333.70 C441.65,341.24 441.83,347.50 441.70,347.63 C441.42,347.91 433.92,348.32 432.25,348.14 C431.46,348.05 431.00,346.36 431.00,343.50 L 431.00 339.00 L 420.89 339.00 L 421.20 343.75 L 421.50 348.50 L 430.00 349.11 L 430.00 361.00 L 436.50 361.00 C442.77,361.00 443.00,360.91 443.00,358.50 C443.00,356.16 443.33,356.00 448.06,356.00 C451.18,356.00 452.88,355.62 452.50,355.00 C452.16,354.45 450.16,354.00 448.06,354.00 L 444.24 354.00 L 443.79 347.82 C443.00,336.90 443.02,336.87 451.87,337.21 L 459.50 337.50 L 459.79 344.76 C460.08,351.77 460.00,352.05 457.49,353.00 C455.07,353.92 454.92,354.36 455.20,359.63 L 455.50 365.26 L 460.25 365.38 L 465.00 365.50 L 465.00 360.25 L 465.00 355.00 L 471.44 355.00 C474.98,355.00 478.07,355.34 478.31,355.75 C478.55,356.16 478.43,361.45 478.05,367.50 C478.01,368.13 477.97,368.74 477.94,369.32 C477.94,368.97 477.95,368.61 477.95,368.25 L 478.15 356.00 L 466.19 356.00 L 465.79 361.75 C465.46,366.38 465.83,368.29 467.67,371.55 C472.45,380.03 476.74,398.22 475.50,404.81 C474.65,409.36 473.21,408.46 470.44,401.67 C466.89,392.93 461.59,386.46 453.63,381.11 C431.50,366.27 410.36,363.89 392.19,374.20 C389.27,375.86 387.05,377.39 387.26,377.60 C387.47,377.81 391.32,377.44 395.82,376.78 C398.45,376.40 401.03,376.22 403.56,376.23 C401.17,376.25 398.73,376.45 396.26,376.85 C391.99,377.53 387.31,378.22 385.86,378.38 C380.08,379.01 368.14,389.10 335.44,421.08 ZM 713.50 425.00 C715.29,423.03 715.25,423.00 710.40,423.02 C709.88,423.02 709.38,423.03 708.91,423.05 C710.03,422.91 711.23,422.77 712.31,422.67 C718.19,422.13 721.58,419.27 723.12,413.57 C724.52,408.36 726.53,404.45 730.22,399.76 L 733.16 396.01 L 727.10 389.07 C733.22,395.61 736.82,398.80 738.19,398.93 C738.52,398.97 741.64,396.86 745.40,394.07 C737.03,400.37 733.79,404.13 735.38,405.71 C736.33,406.66 739.91,403.78 756.50,388.74 C772.60,374.14 783.18,363.15 797.19,346.47 C805.26,336.87 817.38,325.00 819.12,325.00 C819.70,325.00 820.01,325.34 819.81,325.75 C819.62,326.16 817.75,329.88 815.66,334.00 L 811.85 341.50 L 838.68 368.24 L 865.50 394.97 L 865.77 369.99 L 866.03 345.00 L 882.00 345.00 L 882.00 422.00 L 871.52 422.00 L 847.40 397.90 L 823.29 373.80 L 822.60 383.24 C822.21,388.43 821.97,399.17 822.06,407.09 L 822.22 421.50 L 814.61 421.79 L 807.00 422.08 L 807.00 358.35 L 804.54 356.03 C802.16,353.80 801.98,353.78 799.45,355.44 C794.65,358.59 767.23,386.02 752.05,402.87 C743.81,412.01 736.19,420.04 735.13,420.70 C734.06,421.36 729.66,422.20 725.34,422.56 C720.57,422.97 716.21,423.96 714.19,425.11 C713.32,425.61 712.48,426.01 711.68,426.30 C712.38,425.98 713.00,425.55 713.50,425.00 ZM 431.05 428.36 C430.54,428.87 430.01,429.38 429.45,429.90 C422.37,436.52 421.67,439.31 427.43,438.02 C433.20,436.71 436.78,433.82 442.52,425.81 C445.59,421.51 448.45,418.00 448.86,418.00 C452.57,418.00 455.57,427.36 453.85,433.58 C453.34,435.44 451.36,438.99 449.46,441.49 C447.56,443.98 445.99,446.35 445.97,446.76 C445.95,447.17 444.27,449.34 442.22,451.59 C439.74,454.31 435.72,456.94 430.18,459.47 C419.79,464.20 409.05,465.20 396.31,462.62 C383.77,460.08 364.37,450.27 360.65,444.59 C359.80,443.29 354.81,439.91 349.55,437.08 C344.17,434.18 340.00,431.29 340.00,430.46 C340.00,429.89 339.92,429.49 339.76,429.27 C339.88,429.27 340.00,429.29 340.12,429.32 C341.33,429.64 343.85,427.74 348.03,423.39 C351.40,419.88 354.62,417.00 355.17,417.00 C355.73,417.00 358.69,419.23 361.75,421.96 C369.22,428.63 383.40,435.65 393.42,437.67 C407.96,440.59 422.03,436.50 431.05,428.36 ZM 956.76 390.25 L 956.50 421.50 L 948.75 421.79 L 941.00 422.08 L 941.00 359.00 L 917.00 359.00 L 917.00 345.00 L 981.00 345.00 L 981.00 359.00 L 957.03 359.00 ZM 1027.36 421.36 L 1032.00 420.73 L 1032.00 389.95 L 1026.50 390.48 C1023.47,390.78 1021.00,390.66 1021.00,390.22 C1021.00,389.78 1020.21,389.37 1019.25,389.29 C1017.64,389.17 1017.52,390.45 1017.80,405.58 C1017.82,407.06 1017.84,408.41 1017.86,409.64 C1017.97,417.44 1018.01,420.60 1019.53,421.66 C1019.75,421.82 1020.01,421.93 1020.31,422.00 L 1017.00 422.00 L 1017.00 390.91 L 1013.18 385.71 C1006.26,376.26 986.96,348.06 986.37,346.51 C985.87,345.23 987.17,345.00 994.86,345.00 L 1003.94 345.00 L 1014.22 360.50 C1019.87,369.02 1024.75,376.00 1025.05,376.00 C1025.58,376.00 1039.75,354.73 1043.53,348.25 L 1045.43 345.00 L 1054.72 345.00 C1059.82,345.00 1064.00,345.24 1064.00,345.54 C1064.00,345.84 1063.16,347.30 1062.13,348.79 C1061.09,350.28 1056.96,356.45 1052.95,362.50 C1048.93,368.55 1042.80,377.46 1039.32,382.30 L 1033.00 391.09 L 1033.00 422.00 L 1022.93 422.00 C1023.58,421.92 1024.32,421.81 1025.16,421.69 C1025.83,421.58 1026.56,421.47 1027.36,421.36 ZM 908.78 383.25 L 908.61 406.56 C908.57,405.27 908.52,403.93 908.46,402.56 L 907.74 385.22 L 904.47 387.15 C899.79,389.91 895.04,391.16 894.86,389.68 C894.44,386.13 893.18,401.12 893.10,410.75 L 893.00 422.00 L 895.23 422.00 L 893.00 422.08 L 893.00 345.00 L 909.05 345.00 ZM 880.92 405.14 C880.88,396.54 880.61,390.07 880.34,390.76 C880.06,391.45 879.42,391.76 878.91,391.45 C878.41,391.14 878.00,391.25 877.99,391.69 C877.98,393.04 868.66,393.06 867.80,391.72 C867.33,390.97 867.02,391.57 867.02,393.25 C867.00,396.46 866.39,396.64 863.66,394.25 C862.56,393.29 861.95,393.01 862.31,393.63 C862.96,394.75 854.03,399.29 851.13,399.32 C850.38,399.33 854.88,404.36 861.13,410.51 C872.49,421.67 872.50,421.68 876.75,421.23 L 881.00 420.79 ZM 955.85 404.25 C955.77,395.04 955.51,388.72 955.29,390.20 C954.67,394.24 947.23,396.17 943.75,393.19 C942.09,391.77 942.00,392.48 942.00,406.35 L 942.00 421.00 L 956.00 421.00 ZM 822.00 400.50 L 817.25 400.24 C814.20,400.07 812.05,399.37 811.25,398.30 C810.56,397.37 809.97,397.04 809.93,397.56 C809.89,398.08 809.47,397.60 809.00,396.50 C808.46,395.24 808.11,399.42 808.07,407.75 L 808.00 421.00 L 822.00 421.00 ZM 418.00 317.91 L 418.00 333.00 L 410.97 333.00 C402.85,333.00 402.76,332.90 403.20,324.39 L 403.50 318.50 L 410.75 318.21 ZM 445.00 311.02 L 445.00 318.00 L 437.97 318.00 C429.85,318.00 429.76,317.90 430.20,309.39 L 430.50 303.50 L 435.43 303.19 C444.50,302.61 445.00,303.02 445.00,311.02 ZM 464.00 305.00 L 464.00 291.00 L 478.00 291.00 L 478.00 305.00 L 464.00 305.00 ZM 458.50 326.92 C458.50,330.45 458.05,333.40 457.50,333.48 C456.95,333.56 454.42,333.46 451.88,333.26 L 447.26 332.90 L 446.63 328.31 C446.59,328.03 446.55,327.76 446.52,327.49 C445.95,323.41 445.69,321.51 446.51,320.68 C447.22,319.96 448.75,320.03 451.59,320.17 C451.80,320.18 452.02,320.19 452.25,320.20 L 458.50 320.50 ZM 404.50 348.17 C405.24,348.90 413.12,349.10 415.21,348.43 C416.64,347.98 417.00,346.78 417.00,342.43 L 417.00 337.00 L 404.00 337.00 L 404.00 342.33 C404.00,345.27 404.23,347.89 404.50,348.17 ZM 427.10 302.00 L 426.50 313.50 L 415.00 314.10 L 415.00 302.00 ZM 476.00 324.07 L 471.59 325.96 C469.17,327.00 466.36,327.72 465.34,327.57 C463.16,327.23 462.04,328.65 462.02,331.75 C462.00,333.87 462.40,334.00 469.00,334.00 L 475.84 334.00 C475.73,334.29 475.61,334.45 475.50,334.47 C474.95,334.54 471.69,334.44 468.25,334.25 L 462.00 333.90 L 462.00 319.00 L 477.08 319.00 L 476.79 326.67 C476.68,329.60 476.37,332.19 476.00,333.52 ZM 404.74 361.41 C405.15,361.82 406.78,361.89 408.37,361.58 C409.95,361.26 412.34,361.00 413.67,361.00 C415.94,361.00 416.07,360.69 415.80,356.25 L 415.50 351.50 L 404.00 350.90 L 404.00 355.78 C404.00,358.47 404.33,361.00 404.74,361.41 ZM 459.00 296.00 L 459.00 304.00 L 450.00 304.00 L 450.00 296.00 ZM 477.00 298.50 C477.00,293.64 476.65,292.00 475.62,292.00 C474.29,292.00 473.31,293.91 471.17,300.66 C469.98,304.40 470.39,305.00 474.17,305.00 C476.99,305.00 477.00,304.97 477.00,298.50 ZM 458.00 329.67 C458.00,326.27 457.95,326.25 452.87,326.92 C451.98,327.03 450.99,331.17 451.61,332.17 C451.89,332.63 453.44,333.00 455.06,333.00 C457.73,333.00 458.00,332.69 458.00,329.67 ZM 309.00 445.67 C294.25,457.19 279.58,465.11 265.64,469.09 C280.98,464.71 296.99,455.59 313.36,441.93 C311.46,443.63 309.95,444.93 309.00,445.67 ZM 380.51 467.70 C389.29,470.29 398.90,471.67 408.15,471.78 C398.66,471.83 389.48,470.48 380.51,467.70 ZM 771.94 368.94 C782.57,357.65 792.00,346.55 792.00,344.47 C792.00,346.66 782.68,357.63 771.94,368.94 ZM 436.85 421.46 C439.50,417.17 441.00,412.27 441.00,407.00 C441.00,412.49 439.79,416.96 436.85,421.46 ZM 425.60 381.90 C434.97,387.34 441.00,396.31 441.00,407.00 C441.00,396.39 434.91,387.38 425.60,381.90 ZM 358.76 457.92 C349.99,452.72 341.79,446.51 336.66,441.20 C343.15,447.92 354.35,455.79 364.76,461.24 C362.75,460.21 360.75,459.11 358.76,457.92 ZM 431.04 469.01 C436.11,467.54 440.47,465.86 444.52,463.72 C440.30,466.00 435.87,467.74 431.04,469.01 ZM 688.59 344.50 L 699.49 344.21 L 688.66 344.50 L 695.08 352.17 C695.64,352.84 696.20,353.51 696.76,354.17 C695.82,353.07 695.05,352.17 694.49,351.50 ZM 704.36 423.78 C703.64,424.09 703.37,424.49 703.59,424.94 C702.77,424.26 702.96,424.09 704.36,423.78 ZM 480.92 405.53 C480.41,415.32 477.99,425.24 473.80,434.00 C477.95,425.33 480.39,415.27 480.92,405.53 ZM 906.74 421.57 C907.68,421.40 908.32,421.20 908.50,420.99 L 908.50 421.50 ZM 478.81 384.35 C478.92,384.85 479.04,385.37 479.18,385.91 C479.71,388.09 480.13,390.32 480.43,392.60 C480.16,390.68 479.81,388.81 479.36,387.00 C479.15,386.16 478.97,385.28 478.81,384.35 ZM 706.51 426.63 C707.21,426.82 707.92,426.92 708.63,426.92 C707.89,426.94 707.18,426.84 706.51,426.63 Z" fill="rgb(249,137,39)"/>
<path d="M 0.00 418.00 L 0.00 0.00 L 627.00 0.00 L 1254.00 0.00 L 1254.00 418.00 L 1254.00 836.00 L 627.00 836.00 L 0.00 836.00 L 0.00 418.00 ZM 265.63 469.09 C279.57,465.12 294.24,457.19 309.00,445.67 C312.58,442.88 324.05,432.22 334.50,422.00 C367.91,389.29 380.02,379.01 385.86,378.38 C387.31,378.22 391.99,377.53 396.26,376.85 C419.91,373.04 441.00,387.26 441.00,407.00 C441.00,427.67 417.87,442.58 393.42,437.67 C383.40,435.65 369.22,428.63 361.75,421.96 C358.69,419.23 355.73,417.00 355.17,417.00 C354.62,417.00 351.40,419.88 348.03,423.39 C343.85,427.74 341.33,429.64 340.12,429.32 C338.89,429.00 337.52,430.12 335.59,433.05 L 332.82 437.23 L 336.66 441.20 C341.79,446.51 349.99,452.72 358.76,457.92 C375.69,467.98 393.26,472.52 412.00,471.68 C433.33,470.72 447.13,464.93 461.11,451.05 C468.15,444.06 470.47,440.95 473.80,434.00 C480.88,419.20 482.91,401.08 479.18,385.91 C477.69,379.86 477.48,376.48 478.05,367.50 C478.43,361.45 478.55,356.16 478.31,355.75 C478.07,355.34 474.98,355.00 471.44,355.00 L 465.00 355.00 L 465.00 360.25 L 465.00 365.50 L 460.25 365.38 L 455.50 365.26 L 455.20 359.63 C454.92,354.36 455.07,353.92 457.49,353.00 C460.00,352.05 460.08,351.77 459.79,344.76 L 459.50 337.50 L 451.87 337.21 C443.02,336.87 443.00,336.90 443.79,347.82 L 444.24 354.00 L 448.06 354.00 C450.16,354.00 452.16,354.45 452.50,355.00 C452.88,355.62 451.18,356.00 448.06,356.00 C443.33,356.00 443.00,356.16 443.00,358.50 C443.00,360.91 442.77,361.00 436.50,361.00 L 430.00 361.00 L 430.00 355.06 L 430.00 349.11 L 425.75 348.81 L 421.50 348.50 L 421.20 343.75 L 420.89 339.00 L 425.95 339.00 L 431.00 339.00 L 431.00 343.50 C431.00,346.36 431.46,348.05 432.25,348.14 C433.92,348.32 441.42,347.91 441.70,347.63 C441.83,347.50 441.65,341.24 441.31,333.70 L 440.69 320.00 L 432.85 320.00 L 425.00 320.00 L 425.00 327.00 L 425.00 334.00 L 415.44 334.00 C398.13,334.00 384.55,337.18 369.50,344.75 C353.45,352.82 346.27,358.74 314.00,390.50 C288.96,415.14 277.18,424.93 266.52,429.95 C249.75,437.86 232.98,436.32 221.49,425.82 C218.40,422.99 214.68,418.39 213.22,415.59 C210.95,411.23 210.58,409.29 210.61,402.00 C210.64,394.76 211.05,392.72 213.36,388.21 C217.35,380.44 222.34,375.47 230.03,371.62 C249.90,361.68 275.07,365.98 300.11,383.58 L 304.80 386.87 L 316.65 375.03 L 328.50 363.18 L 325.00 360.25 C314.58,351.52 296.60,341.52 284.40,337.67 C270.16,333.17 249.70,331.88 234.55,334.52 C203.99,339.85 179.41,361.22 172.51,388.46 C170.74,395.46 170.53,411.65 172.11,419.20 C176.45,439.87 193.54,458.98 214.94,467.11 C228.81,472.37 251.07,473.25 265.63,469.09 ZM 533.00 454.50 C533.00,451.48 533.45,449.00 534.00,449.00 C534.55,449.00 535.00,449.39 535.00,449.86 C535.00,451.08 542.99,460.00 544.08,460.00 C544.59,460.00 545.00,456.17 545.00,451.50 C545.00,444.75 544.70,443.00 543.55,443.00 C542.51,443.00 542.02,444.47 541.80,448.20 L 541.50 453.40 L 537.54 448.20 C535.37,445.33 532.78,443.00 531.79,443.00 C530.22,443.00 530.00,443.97 530.00,450.83 C530.00,455.14 530.30,458.97 530.67,459.33 C532.33,460.99 533.00,459.60 533.00,454.50 ZM 564.00 458.50 C564.00,457.37 562.78,457.00 559.00,457.00 C554.67,457.00 554.00,456.73 554.00,455.00 C554.00,453.33 554.67,453.00 558.00,453.00 C560.89,453.00 562.00,452.58 562.00,451.50 C562.00,450.41 560.88,450.00 557.93,450.00 C554.28,450.00 553.89,449.77 554.18,447.75 C554.45,445.83 555.20,445.46 559.27,445.19 C566.01,444.76 564.14,443.00 556.94,443.00 L 551.00 443.00 L 551.00 451.50 L 551.00 460.00 L 557.50 460.00 C562.61,460.00 564.00,459.68 564.00,458.50 ZM 573.09 456.87 L 575.67 453.73 L 577.90 456.86 C579.13,458.59 580.78,460.00 581.57,460.00 C583.60,460.00 583.36,458.87 580.50,455.00 C579.12,453.14 578.00,451.28 578.00,450.88 C578.00,450.48 579.12,448.82 580.50,447.18 C583.42,443.71 583.58,443.00 581.39,443.00 C580.51,443.00 578.85,444.19 577.71,445.64 L 575.63 448.28 L 573.45 445.54 C572.25,444.03 570.52,442.96 569.61,443.15 C568.23,443.44 568.48,444.14 571.05,447.25 L 574.15 451.00 L 571.07 454.73 C569.38,456.78 568.00,458.80 568.00,459.23 C568.00,461.03 570.69,459.79 573.09,456.87 ZM 595.00 453.07 C595.00,446.30 595.06,446.13 597.67,445.82 C599.14,445.64 600.53,444.94 600.76,444.25 C601.06,443.32 599.20,443.00 593.58,443.00 C587.51,443.00 586.00,443.30 586.00,444.50 C586.00,445.50 587.00,446.00 589.00,446.00 L 592.00 446.00 L 592.00 453.00 C592.00,458.56 592.31,460.00 593.50,460.00 C594.69,460.00 595.00,458.56 595.00,453.07 ZM 617.36 458.88 C619.10,458.09 619.92,456.78 620.21,454.35 C620.69,450.19 620.52,450.00 616.33,450.00 C612.70,450.00 611.78,451.87 615.00,452.71 C617.77,453.44 617.51,455.83 614.57,456.57 C609.07,457.95 605.46,453.68 607.79,448.57 C609.11,445.67 612.15,444.85 615.38,446.52 C617.43,447.58 618.10,447.59 618.96,446.55 C620.57,444.61 617.46,442.55 612.95,442.55 C606.11,442.55 601.92,448.47 604.46,454.56 C606.52,459.48 612.01,461.32 617.36,458.88 ZM 638.00 458.50 C638.00,457.39 636.83,457.00 633.50,457.00 C629.67,457.00 629.00,456.70 629.00,455.00 C629.00,453.33 629.67,453.00 633.00,453.00 C635.89,453.00 637.00,452.58 637.00,451.50 C637.00,450.42 635.89,450.00 633.00,450.00 C629.75,450.00 629.00,449.65 629.00,448.12 C629.00,446.20 631.52,445.04 635.75,445.01 C636.99,445.01 638.00,444.55 638.00,444.00 C638.00,443.45 635.38,443.00 632.13,443.00 L 626.26 443.00 L 625.64 446.75 C624.82,451.72 624.83,458.50 625.67,459.33 C626.03,459.70 628.96,460.00 632.17,460.00 C636.69,460.00 638.00,459.66 638.00,458.50 ZM 646.00 454.50 C646.00,451.48 646.34,449.03 646.75,449.07 C647.16,449.12 649.30,451.44 651.50,454.25 C657.46,461.83 658.00,461.61 658.00,451.58 C658.00,444.76 657.70,443.00 656.55,443.00 C655.51,443.00 655.02,444.47 654.80,448.24 L 654.50 453.47 L 650.50 448.28 C648.30,445.42 645.71,443.07 644.75,443.04 C643.22,443.01 643.00,444.06 643.00,451.50 C643.00,458.39 643.28,460.00 644.50,460.00 C645.65,460.00 646.00,458.72 646.00,454.50 ZM 683.43 458.43 C685.31,456.55 685.50,452.44 683.75,451.31 C683.06,450.86 681.00,450.05 679.18,449.50 C675.49,448.39 674.90,447.10 677.36,445.54 C678.52,444.81 679.60,444.90 681.11,445.84 C684.38,447.88 685.87,445.61 682.65,443.50 C677.78,440.32 670.92,444.01 672.49,448.97 C672.83,450.05 674.87,451.46 677.23,452.24 C679.51,453.00 681.55,454.16 681.77,454.81 C682.38,456.64 679.03,457.45 675.86,456.25 C672.37,454.94 670.75,456.61 673.54,458.65 C676.04,460.48 681.50,460.36 683.43,458.43 ZM 702.32 458.84 C705.52,457.13 706.93,454.89 706.97,451.47 C707.03,445.18 700.63,440.67 694.96,443.02 C688.47,445.70 687.07,452.22 691.92,457.08 C695.05,460.20 698.62,460.81 702.32,458.84 ZM 724.00 458.50 C724.00,457.39 722.83,457.00 719.50,457.00 L 715.00 457.00 L 715.00 450.00 C715.00,444.44 714.69,443.00 713.50,443.00 C712.28,443.00 712.00,444.61 712.00,451.50 L 712.00 460.00 L 718.00 460.00 C722.67,460.00 724.00,459.67 724.00,458.50 ZM 741.00 458.00 C743.59,455.41 744.00,443.00 741.50,443.00 C740.34,443.00 740.00,444.31 740.00,448.80 C740.00,454.77 738.88,457.00 735.87,457.00 C732.62,457.00 731.00,454.14 731.00,448.43 C731.00,444.27 730.65,443.00 729.50,443.00 C728.33,443.00 728.00,444.34 728.00,449.05 C728.00,454.13 728.39,455.48 730.45,457.55 C733.48,460.58 738.22,460.78 741.00,458.00 ZM 755.79 452.73 C756.06,446.87 756.33,446.09 758.22,445.81 C759.39,445.64 760.53,444.94 760.76,444.25 C761.06,443.33 759.30,443.00 754.08,443.00 C748.45,443.00 747.00,443.31 747.00,444.50 C747.00,445.50 748.00,446.00 750.00,446.00 L 753.00 446.00 L 753.00 453.08 C753.00,458.30 753.33,460.06 754.25,459.75 C755.04,459.49 755.61,456.91 755.79,452.73 ZM 768.79 451.17 C769.03,444.35 768.83,443.00 767.54,443.00 C766.27,443.00 766.00,444.52 766.00,451.58 C766.00,458.00 766.31,460.06 767.25,459.75 C768.08,459.48 768.60,456.60 768.79,451.17 ZM 788.55 457.55 C794.14,451.95 790.31,442.80 782.36,442.80 C777.13,442.80 772.51,447.74 773.40,452.38 C774.76,459.46 783.61,462.48 788.55,457.55 ZM 799.00 454.50 C799.00,451.48 799.45,449.00 800.00,449.00 C800.55,449.00 801.00,449.39 801.00,449.86 C801.00,451.37 808.45,459.99 809.75,460.00 C810.65,460.00 811.00,457.64 811.00,451.50 C811.00,444.61 810.72,443.00 809.50,443.00 C808.37,443.00 808.00,444.22 808.00,448.00 C808.00,450.75 807.66,452.98 807.25,452.96 C806.84,452.93 804.78,450.68 802.68,447.96 C797.06,440.68 796.00,441.24 796.00,451.50 C796.00,458.39 796.28,460.00 797.50,460.00 C798.65,460.00 799.00,458.72 799.00,454.50 ZM 826.78 458.44 C828.06,457.54 829.00,455.84 829.00,454.39 C829.00,451.95 827.96,451.23 820.57,448.61 C818.79,447.98 818.76,447.81 820.29,446.29 C821.62,444.95 822.39,444.86 824.43,445.78 C826.16,446.57 827.13,446.60 827.58,445.88 C829.58,442.63 819.61,441.44 817.27,444.64 C814.92,447.86 816.13,450.31 820.96,452.09 C823.41,453.00 825.58,454.24 825.79,454.87 C826.38,456.64 822.99,457.44 819.86,456.25 C816.37,454.94 814.75,456.61 817.54,458.65 C820.00,460.45 824.04,460.36 826.78,458.44 ZM 845.81 456.74 C846.06,454.62 846.63,454.15 848.85,454.21 C853.07,454.33 856.00,452.32 856.00,449.29 C856.00,445.03 853.37,443.00 847.85,443.00 L 843.00 443.00 L 843.00 451.58 C843.00,458.00 843.32,460.06 844.25,459.76 C844.94,459.53 845.64,458.17 845.81,456.74 ZM 863.00 457.00 C863.00,454.68 863.45,454.00 864.97,454.00 C866.05,454.00 867.94,455.35 869.16,457.00 C872.59,461.64 875.72,460.90 872.44,456.22 C871.03,454.21 871.03,453.79 872.44,451.78 C876.02,446.68 873.04,443.00 865.35,443.00 L 860.00 443.00 L 860.00 450.83 C860.00,455.14 860.30,458.97 860.67,459.33 C862.10,460.77 863.00,459.87 863.00,457.00 ZM 882.00 451.50 C882.00,444.61 881.72,443.00 880.50,443.00 C879.28,443.00 879.00,444.61 879.00,451.50 C879.00,458.39 879.28,460.00 880.50,460.00 C881.72,460.00 882.00,458.39 882.00,451.50 ZM 899.33 451.84 C901.35,447.34 902.80,443.46 902.55,443.21 C901.24,441.91 898.92,444.45 897.33,448.95 C896.34,451.73 895.24,454.00 894.88,454.00 C894.52,454.00 893.23,451.52 892.00,448.50 C890.46,444.71 889.21,443.00 887.98,443.00 C886.40,443.00 886.62,444.02 889.81,451.50 C891.81,456.17 893.94,460.00 894.55,460.00 C895.16,460.00 897.31,456.33 899.33,451.84 ZM 907.50 458.00 C907.99,456.45 909.01,456.00 912.03,456.00 C914.91,456.00 916.21,456.53 917.00,458.00 C918.15,460.15 921.54,460.83 920.72,458.75 C917.64,450.86 913.45,443.00 912.34,443.00 C911.13,443.00 904.00,456.78 904.00,459.12 C904.00,460.87 906.88,459.95 907.50,458.00 ZM 930.00 453.00 L 930.00 446.00 L 933.00 446.00 C935.00,446.00 936.00,445.50 936.00,444.50 C936.00,443.31 934.56,443.00 929.00,443.00 C923.44,443.00 922.00,443.31 922.00,444.50 C922.00,445.43 922.94,446.00 924.50,446.00 C926.93,446.00 927.00,446.20 927.00,453.00 C927.00,458.56 927.31,460.00 928.50,460.00 C929.69,460.00 930.00,458.56 930.00,453.00 ZM 952.75 458.25 C953.05,457.36 951.70,457.00 948.08,457.00 C943.72,457.00 943.00,456.73 943.00,455.06 C943.00,453.49 943.81,453.06 947.25,452.81 C949.59,452.64 951.50,452.05 951.50,451.50 C951.50,450.95 949.59,450.36 947.25,450.19 C943.86,449.95 943.00,449.50 943.00,448.00 C943.00,446.46 943.87,446.05 947.67,445.80 C950.28,445.63 952.53,444.95 952.76,444.25 C953.06,443.33 951.40,443.00 946.58,443.00 L 940.00 443.00 L 940.00 451.55 L 940.00 460.10 L 946.17 459.80 C949.99,459.61 952.50,459.02 952.75,458.25 ZM 978.26 458.50 C978.39,457.95 976.59,457.36 974.25,457.19 L 970.00 456.89 L 970.00 449.94 C970.00,444.44 969.69,443.00 968.50,443.00 C967.28,443.00 967.00,444.62 967.00,451.55 L 967.00 460.10 L 972.51 459.80 C975.54,459.63 978.13,459.05 978.26,458.50 ZM 986.00 451.50 C986.00,444.61 985.72,443.00 984.50,443.00 C983.28,443.00 983.00,444.61 983.00,451.50 C983.00,458.39 983.28,460.00 984.50,460.00 C985.72,460.00 986.00,458.39 986.00,451.50 ZM 995.00 453.92 C995.44,449.14 995.64,448.74 996.72,450.50 C999.90,455.73 999.84,455.72 1002.99,452.00 L 1005.95 448.50 L 1005.97 454.33 C1005.99,458.55 1006.35,460.05 1007.25,459.75 C1008.08,459.48 1008.60,456.60 1008.79,451.17 C1009.05,443.87 1008.89,443.00 1007.29,443.01 C1006.31,443.02 1004.43,444.68 1003.11,446.70 L 1000.73 450.38 L 997.77 446.69 C993.02,440.77 992.00,441.64 992.00,451.58 C992.00,458.00 992.32,460.06 993.25,459.76 C993.96,459.52 994.72,456.98 995.00,453.92 ZM 1017.79 451.17 C1018.03,444.35 1017.83,443.00 1016.54,443.00 C1015.27,443.00 1015.00,444.52 1015.00,451.58 C1015.00,458.00 1015.31,460.06 1016.25,459.75 C1017.08,459.48 1017.60,456.60 1017.79,451.17 ZM 1030.79 452.73 C1031.06,446.87 1031.33,446.09 1033.22,445.81 C1034.39,445.64 1035.53,444.94 1035.76,444.25 C1036.06,443.33 1034.30,443.00 1029.08,443.00 C1023.45,443.00 1022.00,443.31 1022.00,444.50 C1022.00,445.51 1023.01,446.00 1025.09,446.00 L 1028.18 446.00 L 1027.98 452.25 C1027.72,460.11 1027.74,460.25 1029.25,459.75 C1030.04,459.49 1030.61,456.91 1030.79,452.73 ZM 1052.75 458.25 C1053.05,457.36 1051.70,457.00 1048.08,457.00 C1043.67,457.00 1043.00,456.74 1043.00,455.00 C1043.00,453.33 1043.67,453.00 1047.00,453.00 C1052.39,453.00 1052.62,450.25 1047.26,449.81 C1044.70,449.60 1043.42,448.97 1043.20,447.81 C1042.94,446.45 1043.78,446.05 1047.45,445.81 C1054.29,445.35 1053.46,443.55 1046.25,443.20 L 1040.00 442.90 L 1040.00 450.79 C1040.00,455.12 1040.32,458.99 1040.71,459.38 C1041.91,460.58 1052.31,459.61 1052.75,458.25 ZM 1069.92 457.41 C1073.90,454.07 1074.16,449.07 1070.55,445.45 C1068.59,443.50 1067.07,443.00 1063.05,443.00 L 1058.00 443.00 L 1058.00 451.50 L 1058.00 460.00 L 1062.42 460.00 C1065.72,460.00 1067.63,459.34 1069.92,457.41 ZM 714.19 425.11 C716.21,423.96 720.57,422.97 725.34,422.56 C729.66,422.20 734.06,421.36 735.13,420.70 C736.19,420.04 743.81,412.01 752.05,402.87 C767.23,386.02 794.65,358.59 799.45,355.44 C801.98,353.78 802.16,353.80 804.54,356.03 L 807.00 358.35 L 807.00 390.22 L 807.00 422.08 L 814.61 421.79 L 822.22 421.50 L 822.06 407.09 C821.97,399.17 822.21,388.43 822.60,383.24 L 823.29 373.80 L 847.40 397.90 L 871.52 422.00 L 876.76 422.00 L 882.00 422.00 L 882.00 383.50 L 882.00 345.00 L 874.02 345.00 L 866.03 345.00 L 865.77 369.99 L 865.50 394.97 L 838.68 368.24 L 811.85 341.50 L 815.66 334.00 C817.75,329.88 819.62,326.16 819.81,325.75 C820.01,325.34 819.70,325.00 819.12,325.00 C817.38,325.00 805.26,336.87 797.19,346.47 C783.18,363.15 772.60,374.14 756.50,388.74 C739.91,403.78 736.33,406.66 735.38,405.71 C733.79,404.12 737.04,400.36 745.45,394.04 C758.70,384.08 792.00,348.62 792.00,344.47 C792.00,343.25 789.57,343.00 777.50,343.00 C768.50,343.00 763.00,343.38 763.00,344.00 C763.00,344.55 764.80,345.00 767.00,345.00 C769.20,345.00 771.00,345.26 771.00,345.57 C771.00,347.47 741.98,383.11 740.95,382.47 C739.93,381.84 712.37,347.48 711.18,345.35 C710.55,344.23 708.10,343.99 699.49,344.21 L 688.59 344.50 L 694.49 351.50 C697.73,355.35 707.76,366.94 716.77,377.26 L 733.16 396.01 L 730.22 399.76 C726.53,404.45 724.52,408.36 723.12,413.57 C721.58,419.27 718.19,422.13 712.31,422.67 C709.67,422.92 706.38,423.35 705.00,423.64 C702.58,424.15 702.57,424.21 704.44,425.58 C707.09,427.51 710.25,427.36 714.19,425.11 ZM 545.00 383.50 L 545.00 345.00 L 537.50 345.00 L 530.00 345.00 L 530.00 383.50 L 530.00 422.00 L 537.50 422.00 L 545.00 422.00 L 545.00 383.50 ZM 572.23 397.65 L 572.50 373.31 L 584.16 386.90 C590.58,394.38 600.20,405.34 605.54,411.25 C614.24,420.87 615.62,422.00 618.63,422.00 L 622.00 422.00 L 622.00 383.50 L 622.00 345.00 L 614.50 345.00 L 607.00 345.00 L 607.00 367.50 C607.00,379.88 606.75,390.00 606.44,390.00 C606.12,390.00 604.66,388.55 603.19,386.77 C601.71,385.00 595.78,378.09 590.00,371.41 C584.22,364.74 576.58,355.86 573.00,351.67 C567.46,345.18 566.03,344.05 563.33,344.03 C556.57,343.97 557.00,341.27 557.00,383.61 L 557.00 422.00 L 564.48 422.00 L 571.97 422.00 L 572.23 397.65 ZM 648.00 406.52 L 648.00 391.05 L 666.25 390.77 L 684.50 390.50 L 684.84 388.09 C685.03,386.77 684.89,383.74 684.53,381.37 L 683.88 377.05 L 666.19 376.77 L 648.50 376.50 L 648.21 367.75 L 647.92 359.00 L 668.51 359.00 L 689.09 359.00 L 688.80 352.25 L 688.50 345.50 L 660.75 345.23 L 633.00 344.97 L 633.00 383.48 L 633.00 422.00 L 640.50 422.00 L 648.00 422.00 L 648.00 406.52 ZM 908.78 383.25 L 909.05 345.00 L 901.03 345.00 L 893.00 345.00 L 893.00 383.54 L 893.00 422.08 L 900.75 421.79 L 908.50 421.50 L 908.78 383.25 ZM 956.76 390.25 L 957.03 359.00 L 969.01 359.00 L 981.00 359.00 L 981.00 352.00 L 981.00 345.00 L 949.00 345.00 L 917.00 345.00 L 917.00 352.00 L 917.00 359.00 L 929.00 359.00 L 941.00 359.00 L 941.00 390.54 L 941.00 422.08 L 948.75 421.79 L 956.50 421.50 L 956.76 390.25 ZM 1033.00 406.55 L 1033.00 391.09 L 1039.32 382.30 C1042.80,377.46 1048.93,368.55 1052.95,362.50 C1056.96,356.45 1061.09,350.28 1062.13,348.79 C1063.16,347.30 1064.00,345.84 1064.00,345.54 C1064.00,345.24 1059.82,345.00 1054.72,345.00 L 1045.43 345.00 L 1043.53 348.25 C1039.75,354.73 1025.58,376.00 1025.05,376.00 C1024.75,376.00 1019.87,369.02 1014.22,360.50 L 1003.94 345.00 L 994.86 345.00 C987.17,345.00 985.87,345.23 986.37,346.51 C986.96,348.06 1006.26,376.26 1013.18,385.71 L 1017.00 390.91 L 1017.00 406.46 L 1017.00 422.00 L 1025.00 422.00 L 1033.00 422.00 L 1033.00 406.55 ZM 478.38 349.88 C478.72,348.16 479.00,344.78 479.00,342.38 L 479.00 338.00 L 470.50 338.00 L 462.00 338.00 L 462.00 345.50 L 462.00 353.00 L 469.88 353.00 L 477.75 353.00 L 478.38 349.88 ZM 543.91 336.94 C547.97,335.40 549.50,335.19 550.06,336.09 C550.88,337.43 554.00,336.62 554.00,335.07 C554.00,334.52 552.16,333.58 549.91,332.98 C547.63,332.36 543.88,330.09 541.45,327.85 C537.73,324.42 536.64,323.92 534.11,324.48 C530.64,325.24 529.42,326.49 528.48,330.23 C527.93,332.43 528.37,333.53 530.82,335.97 C534.39,339.54 536.63,339.71 543.91,336.94 ZM 476.79 326.67 L 477.08 319.00 L 469.54 319.00 L 462.00 319.00 L 462.00 326.45 L 462.00 333.90 L 468.25 334.25 C471.69,334.44 474.95,334.54 475.50,334.47 C476.05,334.40 476.63,330.89 476.79,326.67 ZM 458.50 326.92 L 458.50 320.50 L 452.25 320.20 C445.24,319.87 445.43,319.59 446.63,328.31 L 447.26 332.90 L 451.88 333.26 C454.42,333.46 456.95,333.56 457.50,333.48 C458.05,333.40 458.50,330.45 458.50,326.92 ZM 418.00 325.46 L 418.00 317.91 L 410.75 318.21 L 403.50 318.50 L 403.20 324.39 C402.76,332.90 402.85,333.00 410.97,333.00 L 418.00 333.00 L 418.00 325.46 ZM 445.00 311.02 C445.00,303.02 444.50,302.61 435.43,303.19 L 430.50 303.50 L 430.20 309.39 C429.76,317.90 429.85,318.00 437.97,318.00 L 445.00 318.00 L 445.00 311.02 ZM 463.80 314.80 C465.93,312.67 465.15,311.00 462.00,311.00 C459.76,311.00 459.00,311.46 459.00,312.83 C459.00,316.05 461.52,317.08 463.80,314.80 ZM 426.80 307.75 L 427.10 302.00 L 421.05 302.00 L 415.00 302.00 L 415.00 308.05 L 415.00 314.10 L 420.75 313.80 L 426.50 313.50 L 426.80 307.75 ZM 478.00 298.00 L 478.00 291.00 L 471.00 291.00 L 464.00 291.00 L 464.00 298.00 L 464.00 305.00 L 471.00 305.00 L 478.00 305.00 L 478.00 298.00 ZM 459.00 300.00 L 459.00 296.00 L 454.50 296.00 L 450.00 296.00 L 450.00 300.00 L 450.00 304.00 L 454.50 304.00 L 459.00 304.00 L 459.00 300.00 ZM 182.67 427.44 C181.75,425.50 180.25,419.74 179.35,414.64 C177.86,406.24 177.85,404.55 179.22,396.42 C182.51,376.87 193.32,361.98 210.26,353.62 C224.71,346.50 226.41,346.31 250.50,349.13 C255.45,349.71 262.87,351.07 266.98,352.16 C274.88,354.24 277.93,355.72 272.00,354.58 C270.08,354.22 261.49,353.66 252.92,353.34 C239.20,352.84 236.36,353.02 229.05,354.87 C210.07,359.67 194.69,371.26 187.73,386.00 C185.79,390.12 183.70,395.88 183.10,398.80 C181.60,406.05 181.75,417.29 183.44,424.49 C184.22,427.79 184.74,430.59 184.60,430.73 C184.47,430.86 183.60,429.38 182.67,427.44 ZM 404.74 361.41 C404.33,361.00 404.00,358.47 404.00,355.78 L 404.00 350.90 L 409.75 351.20 L 415.50 351.50 L 415.80 356.25 C416.07,360.69 415.94,361.00 413.67,361.00 C412.34,361.00 409.95,361.26 408.37,361.58 C406.78,361.89 405.15,361.82 404.74,361.41 ZM 404.50 348.17 C404.23,347.89 404.00,345.27 404.00,342.33 L 404.00 337.00 L 410.50 337.00 L 417.00 337.00 L 417.00 342.43 C417.00,346.78 416.64,347.98 415.21,348.43 C413.12,349.10 405.24,348.90 404.50,348.17 ZM 693.44 454.55 C691.36,451.37 691.85,449.19 695.23,446.68 C697.65,444.87 698.24,444.79 700.51,446.00 C703.81,447.77 704.68,451.32 702.59,454.51 C700.37,457.90 695.65,457.92 693.44,454.55 ZM 778.20 455.80 C776.06,453.66 776.74,448.21 779.37,446.50 C785.07,442.76 791.23,450.76 786.17,455.35 C784.03,457.28 779.92,457.52 778.20,455.80 ZM 846.00 449.00 C846.00,446.33 846.33,446.00 849.03,446.00 C852.45,446.00 853.90,448.21 851.99,450.51 C851.31,451.33 849.69,452.00 848.38,452.00 C846.40,452.00 846.00,451.49 846.00,449.00 ZM 863.00 448.50 C863.00,446.32 863.44,446.00 866.44,446.00 C870.21,446.00 871.33,446.97 870.40,449.41 C870.00,450.43 868.57,451.00 866.39,451.00 C863.44,451.00 863.00,450.68 863.00,448.50 ZM 910.39 451.42 C910.73,450.55 911.00,449.42 911.00,448.92 C911.00,447.10 912.70,448.05 913.82,450.50 C914.87,452.82 914.77,453.00 912.37,453.00 C910.42,453.00 909.94,452.61 910.39,451.42 ZM 1061.00 451.50 C1061.00,446.09 1061.05,446.00 1063.93,446.00 C1067.29,446.00 1070.00,448.26 1070.00,451.07 C1070.00,453.78 1066.47,457.00 1063.50,457.00 C1061.14,457.00 1061.00,456.70 1061.00,451.50 Z" fill="rgb(252,253,252)"/>
</g>
</svg>